<mxfile host="app.diagrams.net" modified="2022-10-08T13:13:17.446Z" agent="5.0 (Windows NT 10.0; Win64; x64) AppleWebKit/537.36 (KHTML, like Gecko) Chrome/105.0.0.0 Safari/537.36 Edg/105.0.1343.53" etag="cCzVTH1f-6NnVHYm_BxW" version="20.2.3" type="github">
  <diagram id="07jtRaqa5h000R3_TLub" name="第 1 页">
    <mxGraphModel dx="1421" dy="772" grid="1" gridSize="10" guides="1" tooltips="1" connect="1" arrows="1" fold="1" page="1" pageScale="1" pageWidth="827" pageHeight="1169" math="0" shadow="0">
      <root>
        <mxCell id="0" />
        <mxCell id="1" parent="0" />
        <mxCell id="7RgaMDayecWNL2mOsD79-62" style="edgeStyle=orthogonalEdgeStyle;rounded=0;orthogonalLoop=1;jettySize=auto;html=1;exitX=1;exitY=0.5;exitDx=0;exitDy=0;entryX=0;entryY=0.5;entryDx=0;entryDy=0;fontSize=11;" edge="1" parent="1" source="7RgaMDayecWNL2mOsD79-1" target="7RgaMDayecWNL2mOsD79-2">
          <mxGeometry relative="1" as="geometry" />
        </mxCell>
        <mxCell id="7RgaMDayecWNL2mOsD79-1" value="&lt;font style=&quot;font-size: 16px;&quot;&gt;SDM生成采购单&lt;/font&gt;" style="rounded=1;whiteSpace=wrap;html=1;fillColor=#d5e8d4;strokeColor=#82b366;" vertex="1" parent="1">
          <mxGeometry x="80" y="280" width="120" height="30" as="geometry" />
        </mxCell>
        <mxCell id="7RgaMDayecWNL2mOsD79-7" style="edgeStyle=orthogonalEdgeStyle;rounded=0;orthogonalLoop=1;jettySize=auto;html=1;exitX=0.5;exitY=0;exitDx=0;exitDy=0;entryX=0.5;entryY=1;entryDx=0;entryDy=0;fontSize=13;" edge="1" parent="1" source="7RgaMDayecWNL2mOsD79-2" target="7RgaMDayecWNL2mOsD79-4">
          <mxGeometry relative="1" as="geometry" />
        </mxCell>
        <mxCell id="7RgaMDayecWNL2mOsD79-9" style="edgeStyle=orthogonalEdgeStyle;rounded=0;orthogonalLoop=1;jettySize=auto;html=1;exitX=0.5;exitY=1;exitDx=0;exitDy=0;entryX=0.5;entryY=0;entryDx=0;entryDy=0;fontSize=13;" edge="1" parent="1" source="7RgaMDayecWNL2mOsD79-2" target="7RgaMDayecWNL2mOsD79-3">
          <mxGeometry relative="1" as="geometry" />
        </mxCell>
        <mxCell id="7RgaMDayecWNL2mOsD79-11" style="edgeStyle=orthogonalEdgeStyle;rounded=0;orthogonalLoop=1;jettySize=auto;html=1;exitX=1;exitY=0.5;exitDx=0;exitDy=0;entryX=0;entryY=0.5;entryDx=0;entryDy=0;fontSize=13;" edge="1" parent="1" source="7RgaMDayecWNL2mOsD79-2" target="7RgaMDayecWNL2mOsD79-5">
          <mxGeometry relative="1" as="geometry" />
        </mxCell>
        <mxCell id="7RgaMDayecWNL2mOsD79-2" value="VSS采购单&lt;br&gt;一级：待接单&lt;br&gt;二级：" style="rounded=0;whiteSpace=wrap;html=1;fontSize=16;" vertex="1" parent="1">
          <mxGeometry x="240" y="265" width="120" height="60" as="geometry" />
        </mxCell>
        <mxCell id="7RgaMDayecWNL2mOsD79-3" value="&lt;font style=&quot;font-size: 13px;&quot;&gt;VSS采购单&lt;br&gt;一级：已关闭&lt;br&gt;二级：项目经理取消&lt;/font&gt;" style="rounded=0;whiteSpace=wrap;html=1;fontSize=16;" vertex="1" parent="1">
          <mxGeometry x="240" y="380" width="120" height="60" as="geometry" />
        </mxCell>
        <mxCell id="7RgaMDayecWNL2mOsD79-4" value="VSS采购单&lt;br&gt;一级：已关闭&lt;br&gt;二级：拒绝接单" style="rounded=0;whiteSpace=wrap;html=1;fontSize=16;" vertex="1" parent="1">
          <mxGeometry x="240" y="160" width="120" height="60" as="geometry" />
        </mxCell>
        <mxCell id="7RgaMDayecWNL2mOsD79-13" style="edgeStyle=orthogonalEdgeStyle;rounded=0;orthogonalLoop=1;jettySize=auto;html=1;exitX=0.5;exitY=0;exitDx=0;exitDy=0;entryX=0.5;entryY=1;entryDx=0;entryDy=0;fontSize=13;" edge="1" parent="1" source="7RgaMDayecWNL2mOsD79-5" target="7RgaMDayecWNL2mOsD79-6">
          <mxGeometry relative="1" as="geometry" />
        </mxCell>
        <mxCell id="7RgaMDayecWNL2mOsD79-16" style="edgeStyle=orthogonalEdgeStyle;rounded=0;orthogonalLoop=1;jettySize=auto;html=1;exitX=1;exitY=0.5;exitDx=0;exitDy=0;entryX=0;entryY=0.5;entryDx=0;entryDy=0;fontSize=13;" edge="1" parent="1" source="7RgaMDayecWNL2mOsD79-5" target="7RgaMDayecWNL2mOsD79-15">
          <mxGeometry relative="1" as="geometry" />
        </mxCell>
        <mxCell id="7RgaMDayecWNL2mOsD79-5" value="是否需要测量报价" style="rhombus;whiteSpace=wrap;html=1;fontSize=13;fillColor=#dae8fc;strokeColor=#6c8ebf;" vertex="1" parent="1">
          <mxGeometry x="440" y="255" width="80" height="80" as="geometry" />
        </mxCell>
        <mxCell id="7RgaMDayecWNL2mOsD79-22" style="edgeStyle=orthogonalEdgeStyle;rounded=0;orthogonalLoop=1;jettySize=auto;html=1;exitX=1;exitY=0.5;exitDx=0;exitDy=0;entryX=0;entryY=0.5;entryDx=0;entryDy=0;fontSize=12;" edge="1" parent="1" source="7RgaMDayecWNL2mOsD79-6" target="7RgaMDayecWNL2mOsD79-21">
          <mxGeometry relative="1" as="geometry" />
        </mxCell>
        <mxCell id="7RgaMDayecWNL2mOsD79-6" value="VSS采购单&lt;br&gt;一级：待发货&lt;br&gt;二级：待报价" style="rounded=0;whiteSpace=wrap;html=1;fontSize=16;" vertex="1" parent="1">
          <mxGeometry x="420" y="160" width="120" height="60" as="geometry" />
        </mxCell>
        <mxCell id="7RgaMDayecWNL2mOsD79-8" value="供应商拒单" style="text;html=1;align=center;verticalAlign=middle;resizable=0;points=[];autosize=1;strokeColor=#d6b656;fillColor=#fff2cc;fontSize=13;" vertex="1" parent="1">
          <mxGeometry x="275" y="225" width="90" height="30" as="geometry" />
        </mxCell>
        <mxCell id="7RgaMDayecWNL2mOsD79-10" value="项目经理取消" style="text;html=1;align=center;verticalAlign=middle;resizable=0;points=[];autosize=1;strokeColor=none;fillColor=none;fontSize=13;" vertex="1" parent="1">
          <mxGeometry x="280" y="335" width="100" height="30" as="geometry" />
        </mxCell>
        <mxCell id="7RgaMDayecWNL2mOsD79-12" value="供应商接单" style="text;html=1;align=center;verticalAlign=middle;resizable=0;points=[];autosize=1;strokeColor=#d6b656;fillColor=#fff2cc;fontSize=13;" vertex="1" parent="1">
          <mxGeometry x="350" y="265" width="90" height="30" as="geometry" />
        </mxCell>
        <mxCell id="7RgaMDayecWNL2mOsD79-14" value="是" style="text;html=1;align=center;verticalAlign=middle;resizable=0;points=[];autosize=1;strokeColor=#d6b656;fillColor=#fff2cc;fontSize=13;" vertex="1" parent="1">
          <mxGeometry x="470" y="225" width="40" height="30" as="geometry" />
        </mxCell>
        <mxCell id="7RgaMDayecWNL2mOsD79-19" style="edgeStyle=orthogonalEdgeStyle;rounded=0;orthogonalLoop=1;jettySize=auto;html=1;exitX=1;exitY=0.5;exitDx=0;exitDy=0;entryX=0;entryY=0.5;entryDx=0;entryDy=0;fontSize=13;" edge="1" parent="1" source="7RgaMDayecWNL2mOsD79-15" target="7RgaMDayecWNL2mOsD79-18">
          <mxGeometry relative="1" as="geometry" />
        </mxCell>
        <mxCell id="7RgaMDayecWNL2mOsD79-15" value="VSS采购单&lt;br&gt;一级：待发货&lt;br&gt;二级：" style="rounded=0;whiteSpace=wrap;html=1;fontSize=16;fillColor=#e1d5e7;strokeColor=#9673a6;" vertex="1" parent="1">
          <mxGeometry x="550" y="265" width="120" height="60" as="geometry" />
        </mxCell>
        <mxCell id="7RgaMDayecWNL2mOsD79-17" value="否" style="text;html=1;align=center;verticalAlign=middle;resizable=0;points=[];autosize=1;strokeColor=#d6b656;fillColor=#fff2cc;fontSize=13;" vertex="1" parent="1">
          <mxGeometry x="510" y="265" width="40" height="30" as="geometry" />
        </mxCell>
        <mxCell id="7RgaMDayecWNL2mOsD79-34" style="edgeStyle=orthogonalEdgeStyle;rounded=0;orthogonalLoop=1;jettySize=auto;html=1;exitX=0.5;exitY=1;exitDx=0;exitDy=0;fontSize=11;entryX=0.5;entryY=0;entryDx=0;entryDy=0;" edge="1" parent="1" source="7RgaMDayecWNL2mOsD79-18" target="7RgaMDayecWNL2mOsD79-33">
          <mxGeometry relative="1" as="geometry">
            <mxPoint x="840" y="360" as="targetPoint" />
          </mxGeometry>
        </mxCell>
        <mxCell id="7RgaMDayecWNL2mOsD79-18" value="VSS采购单&lt;br&gt;一级：待发货&lt;br&gt;二级：" style="rounded=0;whiteSpace=wrap;html=1;fontSize=16;" vertex="1" parent="1">
          <mxGeometry x="780" y="265" width="120" height="60" as="geometry" />
        </mxCell>
        <mxCell id="7RgaMDayecWNL2mOsD79-20" value="&lt;font style=&quot;font-size: 12px;&quot;&gt;供应商&lt;br&gt;发货&lt;/font&gt;" style="text;html=1;align=center;verticalAlign=middle;resizable=0;points=[];autosize=1;strokeColor=#d6b656;fillColor=#fff2cc;fontSize=13;" vertex="1" parent="1">
          <mxGeometry x="700" y="255" width="60" height="40" as="geometry" />
        </mxCell>
        <mxCell id="7RgaMDayecWNL2mOsD79-25" style="edgeStyle=orthogonalEdgeStyle;rounded=0;orthogonalLoop=1;jettySize=auto;html=1;exitX=0.5;exitY=0;exitDx=0;exitDy=0;entryX=0.5;entryY=1;entryDx=0;entryDy=0;fontSize=12;" edge="1" parent="1" source="7RgaMDayecWNL2mOsD79-21" target="7RgaMDayecWNL2mOsD79-24">
          <mxGeometry relative="1" as="geometry" />
        </mxCell>
        <mxCell id="7RgaMDayecWNL2mOsD79-30" style="edgeStyle=orthogonalEdgeStyle;rounded=0;orthogonalLoop=1;jettySize=auto;html=1;exitX=1;exitY=0.5;exitDx=0;exitDy=0;entryX=0;entryY=0.5;entryDx=0;entryDy=0;fontSize=11;" edge="1" parent="1" source="7RgaMDayecWNL2mOsD79-21" target="7RgaMDayecWNL2mOsD79-29">
          <mxGeometry relative="1" as="geometry" />
        </mxCell>
        <mxCell id="7RgaMDayecWNL2mOsD79-21" value="VSS采购单&lt;br&gt;一级：待发货&lt;br&gt;二级：待确认" style="rounded=0;whiteSpace=wrap;html=1;fontSize=16;" vertex="1" parent="1">
          <mxGeometry x="590" y="160" width="120" height="60" as="geometry" />
        </mxCell>
        <mxCell id="7RgaMDayecWNL2mOsD79-23" value="供应商&lt;br&gt;测量报价" style="text;html=1;align=center;verticalAlign=middle;resizable=0;points=[];autosize=1;strokeColor=#d6b656;fillColor=#fff2cc;fontSize=12;" vertex="1" parent="1">
          <mxGeometry x="530" y="140" width="70" height="40" as="geometry" />
        </mxCell>
        <mxCell id="7RgaMDayecWNL2mOsD79-27" style="edgeStyle=orthogonalEdgeStyle;rounded=0;orthogonalLoop=1;jettySize=auto;html=1;exitX=0;exitY=0.5;exitDx=0;exitDy=0;fontSize=12;entryX=0;entryY=0.5;entryDx=0;entryDy=0;" edge="1" parent="1" source="7RgaMDayecWNL2mOsD79-24" target="7RgaMDayecWNL2mOsD79-21">
          <mxGeometry relative="1" as="geometry" />
        </mxCell>
        <mxCell id="7RgaMDayecWNL2mOsD79-24" value="VSS采购单&lt;br&gt;一级：待发货&lt;br&gt;二级：已驳回" style="rounded=0;whiteSpace=wrap;html=1;fontSize=16;" vertex="1" parent="1">
          <mxGeometry x="590" y="60" width="120" height="60" as="geometry" />
        </mxCell>
        <mxCell id="7RgaMDayecWNL2mOsD79-26" value="项目经理&lt;br&gt;驳回报价" style="text;html=1;align=center;verticalAlign=middle;resizable=0;points=[];autosize=1;strokeColor=#d6b656;fillColor=#fff2cc;fontSize=12;" vertex="1" parent="1">
          <mxGeometry x="650" y="120" width="70" height="40" as="geometry" />
        </mxCell>
        <mxCell id="7RgaMDayecWNL2mOsD79-28" value="&lt;font style=&quot;font-size: 11px;&quot;&gt;供应商二次&lt;br style=&quot;font-size: 11px;&quot;&gt;测量报价&lt;/font&gt;" style="text;html=1;align=center;verticalAlign=middle;resizable=0;points=[];autosize=1;strokeColor=#d6b656;fillColor=#fff2cc;fontSize=12;" vertex="1" parent="1">
          <mxGeometry x="500" y="60" width="80" height="40" as="geometry" />
        </mxCell>
        <mxCell id="7RgaMDayecWNL2mOsD79-32" style="edgeStyle=orthogonalEdgeStyle;rounded=0;orthogonalLoop=1;jettySize=auto;html=1;exitX=0.5;exitY=1;exitDx=0;exitDy=0;entryX=0.5;entryY=0;entryDx=0;entryDy=0;fontSize=11;" edge="1" parent="1" source="7RgaMDayecWNL2mOsD79-29" target="7RgaMDayecWNL2mOsD79-18">
          <mxGeometry relative="1" as="geometry" />
        </mxCell>
        <mxCell id="7RgaMDayecWNL2mOsD79-29" value="VSS采购单&lt;br&gt;一级：待发货&lt;br&gt;二级：待确认" style="rounded=0;whiteSpace=wrap;html=1;fontSize=16;fillColor=#e1d5e7;strokeColor=#9673a6;" vertex="1" parent="1">
          <mxGeometry x="780" y="160" width="120" height="60" as="geometry" />
        </mxCell>
        <mxCell id="7RgaMDayecWNL2mOsD79-31" value="项目经理&lt;br&gt;确认报价" style="text;html=1;align=center;verticalAlign=middle;resizable=0;points=[];autosize=1;strokeColor=#d6b656;fillColor=#fff2cc;fontSize=11;" vertex="1" parent="1">
          <mxGeometry x="710" y="150" width="70" height="40" as="geometry" />
        </mxCell>
        <mxCell id="7RgaMDayecWNL2mOsD79-37" style="edgeStyle=orthogonalEdgeStyle;rounded=0;orthogonalLoop=1;jettySize=auto;html=1;exitX=1;exitY=0.5;exitDx=0;exitDy=0;entryX=0;entryY=0.5;entryDx=0;entryDy=0;fontSize=11;" edge="1" parent="1" source="7RgaMDayecWNL2mOsD79-33" target="7RgaMDayecWNL2mOsD79-36">
          <mxGeometry relative="1" as="geometry" />
        </mxCell>
        <mxCell id="7RgaMDayecWNL2mOsD79-50" style="edgeStyle=orthogonalEdgeStyle;rounded=0;orthogonalLoop=1;jettySize=auto;html=1;exitX=0.5;exitY=1;exitDx=0;exitDy=0;fontSize=11;" edge="1" parent="1" source="7RgaMDayecWNL2mOsD79-33" target="7RgaMDayecWNL2mOsD79-49">
          <mxGeometry relative="1" as="geometry" />
        </mxCell>
        <mxCell id="7RgaMDayecWNL2mOsD79-33" value="是否存在上楼费" style="rhombus;whiteSpace=wrap;html=1;fontSize=13;fillColor=#dae8fc;strokeColor=#6c8ebf;" vertex="1" parent="1">
          <mxGeometry x="800" y="365" width="80" height="80" as="geometry" />
        </mxCell>
        <mxCell id="7RgaMDayecWNL2mOsD79-35" value="供应商送达" style="text;html=1;align=center;verticalAlign=middle;resizable=0;points=[];autosize=1;strokeColor=#d6b656;fillColor=#fff2cc;fontSize=11;" vertex="1" parent="1">
          <mxGeometry x="820" y="325" width="80" height="30" as="geometry" />
        </mxCell>
        <mxCell id="7RgaMDayecWNL2mOsD79-40" style="edgeStyle=orthogonalEdgeStyle;rounded=0;orthogonalLoop=1;jettySize=auto;html=1;entryX=0;entryY=0.5;entryDx=0;entryDy=0;fontSize=11;" edge="1" parent="1" source="7RgaMDayecWNL2mOsD79-36" target="7RgaMDayecWNL2mOsD79-39">
          <mxGeometry relative="1" as="geometry" />
        </mxCell>
        <mxCell id="7RgaMDayecWNL2mOsD79-45" style="edgeStyle=orthogonalEdgeStyle;rounded=0;orthogonalLoop=1;jettySize=auto;html=1;exitX=0.5;exitY=0;exitDx=0;exitDy=0;entryX=0.5;entryY=1;entryDx=0;entryDy=0;fontSize=11;" edge="1" parent="1" source="7RgaMDayecWNL2mOsD79-36" target="7RgaMDayecWNL2mOsD79-44">
          <mxGeometry relative="1" as="geometry" />
        </mxCell>
        <mxCell id="7RgaMDayecWNL2mOsD79-47" style="edgeStyle=orthogonalEdgeStyle;rounded=0;orthogonalLoop=1;jettySize=auto;html=1;exitX=0.5;exitY=0;exitDx=0;exitDy=0;entryX=0;entryY=0.5;entryDx=0;entryDy=0;fontSize=11;" edge="1" parent="1" source="7RgaMDayecWNL2mOsD79-36" target="7RgaMDayecWNL2mOsD79-44">
          <mxGeometry relative="1" as="geometry" />
        </mxCell>
        <mxCell id="7RgaMDayecWNL2mOsD79-36" value="VSS采购单&lt;br&gt;一级：待签收&lt;br&gt;二级：待审核" style="rounded=0;whiteSpace=wrap;html=1;fontSize=16;fillColor=#e1d5e7;strokeColor=#9673a6;" vertex="1" parent="1">
          <mxGeometry x="940" y="375" width="120" height="60" as="geometry" />
        </mxCell>
        <mxCell id="7RgaMDayecWNL2mOsD79-38" value="填写上楼&lt;br&gt;费并送达" style="text;html=1;align=center;verticalAlign=middle;resizable=0;points=[];autosize=1;strokeColor=#d6b656;fillColor=#fff2cc;fontSize=11;" vertex="1" parent="1">
          <mxGeometry x="865" y="350" width="70" height="40" as="geometry" />
        </mxCell>
        <mxCell id="7RgaMDayecWNL2mOsD79-43" style="edgeStyle=orthogonalEdgeStyle;rounded=0;orthogonalLoop=1;jettySize=auto;html=1;exitX=0.5;exitY=1;exitDx=0;exitDy=0;entryX=0.5;entryY=1;entryDx=0;entryDy=0;fontSize=11;" edge="1" parent="1" source="7RgaMDayecWNL2mOsD79-39" target="7RgaMDayecWNL2mOsD79-36">
          <mxGeometry relative="1" as="geometry" />
        </mxCell>
        <mxCell id="7RgaMDayecWNL2mOsD79-39" value="VSS采购单&lt;br&gt;一级：待签收&lt;br&gt;二级：审核驳回" style="rounded=0;whiteSpace=wrap;html=1;fontSize=16;fillColor=#e1d5e7;strokeColor=#9673a6;" vertex="1" parent="1">
          <mxGeometry x="1110" y="375" width="120" height="60" as="geometry" />
        </mxCell>
        <mxCell id="7RgaMDayecWNL2mOsD79-41" value="上楼费&lt;br&gt;驳回" style="text;html=1;align=center;verticalAlign=middle;resizable=0;points=[];autosize=1;strokeColor=#d6b656;fillColor=#fff2cc;fontSize=11;" vertex="1" parent="1">
          <mxGeometry x="1050" y="360" width="60" height="40" as="geometry" />
        </mxCell>
        <mxCell id="7RgaMDayecWNL2mOsD79-44" value="VSS采购单&lt;br&gt;一级：已完成&lt;br&gt;二级：审核通过" style="rounded=0;whiteSpace=wrap;html=1;fontSize=16;fillColor=#e1d5e7;strokeColor=#9673a6;" vertex="1" parent="1">
          <mxGeometry x="1121" y="235" width="120" height="60" as="geometry" />
        </mxCell>
        <mxCell id="7RgaMDayecWNL2mOsD79-46" value="审核通过&lt;br&gt;并签收" style="text;html=1;align=center;verticalAlign=middle;resizable=0;points=[];autosize=1;strokeColor=#d6b656;fillColor=#fff2cc;fontSize=11;" vertex="1" parent="1">
          <mxGeometry x="1045" y="310" width="70" height="40" as="geometry" />
        </mxCell>
        <mxCell id="7RgaMDayecWNL2mOsD79-48" value="超过8天项目经理未操作&lt;br&gt;供应商操作签收" style="text;html=1;align=center;verticalAlign=middle;resizable=0;points=[];autosize=1;strokeColor=#d6b656;fillColor=#fff2cc;fontSize=11;" vertex="1" parent="1">
          <mxGeometry x="980" y="225" width="150" height="40" as="geometry" />
        </mxCell>
        <mxCell id="7RgaMDayecWNL2mOsD79-53" style="edgeStyle=orthogonalEdgeStyle;rounded=0;orthogonalLoop=1;jettySize=auto;html=1;exitX=0;exitY=0.5;exitDx=0;exitDy=0;fontSize=11;" edge="1" parent="1" source="7RgaMDayecWNL2mOsD79-49" target="7RgaMDayecWNL2mOsD79-52">
          <mxGeometry relative="1" as="geometry" />
        </mxCell>
        <mxCell id="7RgaMDayecWNL2mOsD79-55" style="edgeStyle=orthogonalEdgeStyle;rounded=0;orthogonalLoop=1;jettySize=auto;html=1;exitX=0.5;exitY=1;exitDx=0;exitDy=0;entryX=0.5;entryY=1;entryDx=0;entryDy=0;fontSize=11;" edge="1" parent="1" source="7RgaMDayecWNL2mOsD79-49" target="7RgaMDayecWNL2mOsD79-52">
          <mxGeometry relative="1" as="geometry" />
        </mxCell>
        <mxCell id="7RgaMDayecWNL2mOsD79-60" style="edgeStyle=orthogonalEdgeStyle;rounded=0;orthogonalLoop=1;jettySize=auto;html=1;exitX=1;exitY=0.5;exitDx=0;exitDy=0;entryX=0.5;entryY=1;entryDx=0;entryDy=0;fontSize=11;" edge="1" parent="1" source="7RgaMDayecWNL2mOsD79-49" target="7RgaMDayecWNL2mOsD79-57">
          <mxGeometry relative="1" as="geometry">
            <Array as="points">
              <mxPoint x="920" y="520" />
              <mxPoint x="920" y="630" />
              <mxPoint x="460" y="630" />
            </Array>
          </mxGeometry>
        </mxCell>
        <mxCell id="7RgaMDayecWNL2mOsD79-49" value="VSS采购单&lt;br&gt;一级：待签收&lt;br&gt;二级：" style="rounded=0;whiteSpace=wrap;html=1;fontSize=16;" vertex="1" parent="1">
          <mxGeometry x="780" y="490" width="120" height="60" as="geometry" />
        </mxCell>
        <mxCell id="7RgaMDayecWNL2mOsD79-51" value="无" style="text;html=1;align=center;verticalAlign=middle;resizable=0;points=[];autosize=1;strokeColor=#d6b656;fillColor=#fff2cc;fontSize=11;" vertex="1" parent="1">
          <mxGeometry x="850" y="445" width="40" height="30" as="geometry" />
        </mxCell>
        <mxCell id="7RgaMDayecWNL2mOsD79-52" value="VSS采购单&lt;br&gt;一级：已完成&lt;br&gt;二级：" style="rounded=0;whiteSpace=wrap;html=1;fontSize=16;" vertex="1" parent="1">
          <mxGeometry x="610" y="490" width="120" height="60" as="geometry" />
        </mxCell>
        <mxCell id="7RgaMDayecWNL2mOsD79-54" value="项目经理&lt;br&gt;确认收货" style="text;html=1;align=center;verticalAlign=middle;resizable=0;points=[];autosize=1;strokeColor=#d6b656;fillColor=#fff2cc;fontSize=11;" vertex="1" parent="1">
          <mxGeometry x="720" y="450" width="70" height="40" as="geometry" />
        </mxCell>
        <mxCell id="7RgaMDayecWNL2mOsD79-56" value="超过8天项目经理未操作&lt;br&gt;供应商操作签收" style="text;html=1;align=center;verticalAlign=middle;resizable=0;points=[];autosize=1;strokeColor=#d6b656;fillColor=#fff2cc;fontSize=11;" vertex="1" parent="1">
          <mxGeometry x="677" y="580" width="150" height="40" as="geometry" />
        </mxCell>
        <mxCell id="7RgaMDayecWNL2mOsD79-61" style="edgeStyle=orthogonalEdgeStyle;rounded=0;orthogonalLoop=1;jettySize=auto;html=1;exitX=0.5;exitY=0;exitDx=0;exitDy=0;entryX=0;entryY=0.5;entryDx=0;entryDy=0;fontSize=11;" edge="1" parent="1" source="7RgaMDayecWNL2mOsD79-57" target="7RgaMDayecWNL2mOsD79-18">
          <mxGeometry relative="1" as="geometry">
            <Array as="points">
              <mxPoint x="460" y="390" />
              <mxPoint x="720" y="390" />
              <mxPoint x="720" y="295" />
            </Array>
          </mxGeometry>
        </mxCell>
        <mxCell id="7RgaMDayecWNL2mOsD79-57" value="VSS采购单&lt;br&gt;一级：拒绝收货&lt;br&gt;二级：" style="rounded=0;whiteSpace=wrap;html=1;fontSize=16;" vertex="1" parent="1">
          <mxGeometry x="400" y="490" width="120" height="60" as="geometry" />
        </mxCell>
        <mxCell id="7RgaMDayecWNL2mOsD79-59" value="项目经理&lt;br&gt;拒绝收货" style="text;html=1;align=center;verticalAlign=middle;resizable=0;points=[];autosize=1;strokeColor=#d6b656;fillColor=#fff2cc;fontSize=11;" vertex="1" parent="1">
          <mxGeometry x="560" y="580" width="70" height="40" as="geometry" />
        </mxCell>
        <mxCell id="7RgaMDayecWNL2mOsD79-63" value="VSS采购单&lt;br&gt;一级：已关闭&lt;br&gt;二级：拒绝接单" style="rounded=0;whiteSpace=wrap;html=1;fontSize=16;" vertex="1" parent="1">
          <mxGeometry x="240" y="160" width="120" height="60" as="geometry" />
        </mxCell>
        <mxCell id="7RgaMDayecWNL2mOsD79-64" value="VSS采购单&lt;br&gt;一级：已关闭&lt;br&gt;二级：拒绝接单" style="rounded=0;whiteSpace=wrap;html=1;fontSize=16;" vertex="1" parent="1">
          <mxGeometry x="240" y="160" width="120" height="60" as="geometry" />
        </mxCell>
        <mxCell id="7RgaMDayecWNL2mOsD79-65" value="VSS采购单&lt;br&gt;一级：待接单&lt;br&gt;二级：" style="rounded=0;whiteSpace=wrap;html=1;fontSize=16;" vertex="1" parent="1">
          <mxGeometry x="240" y="265" width="120" height="60" as="geometry" />
        </mxCell>
        <mxCell id="7RgaMDayecWNL2mOsD79-66" value="&lt;font style=&quot;font-size: 13px;&quot;&gt;VSS采购单&lt;br&gt;一级：已关闭&lt;br&gt;二级：项目经理取消&lt;/font&gt;" style="rounded=0;whiteSpace=wrap;html=1;fontSize=16;" vertex="1" parent="1">
          <mxGeometry x="240" y="380" width="120" height="60" as="geometry" />
        </mxCell>
        <mxCell id="7RgaMDayecWNL2mOsD79-67" value="VSS采购单&lt;br&gt;一级：待发货&lt;br&gt;二级：待报价" style="rounded=0;whiteSpace=wrap;html=1;fontSize=16;" vertex="1" parent="1">
          <mxGeometry x="420" y="160" width="120" height="60" as="geometry" />
        </mxCell>
        <mxCell id="7RgaMDayecWNL2mOsD79-68" value="VSS采购单&lt;br&gt;一级：待发货&lt;br&gt;二级：待确认" style="rounded=0;whiteSpace=wrap;html=1;fontSize=16;" vertex="1" parent="1">
          <mxGeometry x="590" y="160" width="120" height="60" as="geometry" />
        </mxCell>
        <mxCell id="7RgaMDayecWNL2mOsD79-69" value="VSS采购单&lt;br&gt;一级：待发货&lt;br&gt;二级：已驳回" style="rounded=0;whiteSpace=wrap;html=1;fontSize=16;" vertex="1" parent="1">
          <mxGeometry x="590" y="60" width="120" height="60" as="geometry" />
        </mxCell>
        <mxCell id="7RgaMDayecWNL2mOsD79-70" value="VSS采购单&lt;br&gt;一级：已关闭&lt;br&gt;二级：拒绝接单" style="rounded=0;whiteSpace=wrap;html=1;fontSize=16;" vertex="1" parent="1">
          <mxGeometry x="240" y="160" width="120" height="60" as="geometry" />
        </mxCell>
        <mxCell id="7RgaMDayecWNL2mOsD79-71" value="VSS采购单&lt;br&gt;一级：待接单&lt;br&gt;二级：" style="rounded=0;whiteSpace=wrap;html=1;fontSize=16;" vertex="1" parent="1">
          <mxGeometry x="240" y="265" width="120" height="60" as="geometry" />
        </mxCell>
        <mxCell id="7RgaMDayecWNL2mOsD79-72" value="&lt;font style=&quot;font-size: 13px;&quot;&gt;VSS采购单&lt;br&gt;一级：已关闭&lt;br&gt;二级：项目经理取消&lt;/font&gt;" style="rounded=0;whiteSpace=wrap;html=1;fontSize=16;" vertex="1" parent="1">
          <mxGeometry x="240" y="380" width="120" height="60" as="geometry" />
        </mxCell>
        <mxCell id="7RgaMDayecWNL2mOsD79-73" value="VSS采购单&lt;br&gt;一级：待发货&lt;br&gt;二级：待报价" style="rounded=0;whiteSpace=wrap;html=1;fontSize=16;" vertex="1" parent="1">
          <mxGeometry x="420" y="160" width="120" height="60" as="geometry" />
        </mxCell>
        <mxCell id="7RgaMDayecWNL2mOsD79-74" value="VSS采购单&lt;br&gt;一级：待发货&lt;br&gt;二级：待确认" style="rounded=0;whiteSpace=wrap;html=1;fontSize=16;" vertex="1" parent="1">
          <mxGeometry x="590" y="160" width="120" height="60" as="geometry" />
        </mxCell>
        <mxCell id="7RgaMDayecWNL2mOsD79-75" value="VSS采购单&lt;br&gt;一级：待发货&lt;br&gt;二级：已驳回" style="rounded=0;whiteSpace=wrap;html=1;fontSize=16;" vertex="1" parent="1">
          <mxGeometry x="590" y="60" width="120" height="60" as="geometry" />
        </mxCell>
        <mxCell id="7RgaMDayecWNL2mOsD79-76" value="VSS采购单&lt;br&gt;一级：待发货&lt;br&gt;二级：" style="rounded=0;whiteSpace=wrap;html=1;fontSize=16;" vertex="1" parent="1">
          <mxGeometry x="780" y="265" width="120" height="60" as="geometry" />
        </mxCell>
        <mxCell id="7RgaMDayecWNL2mOsD79-77" value="VSS采购单&lt;br&gt;一级：已关闭&lt;br&gt;二级：拒绝接单" style="rounded=0;whiteSpace=wrap;html=1;fontSize=16;fillColor=#e1d5e7;strokeColor=#9673a6;" vertex="1" parent="1">
          <mxGeometry x="240" y="160" width="120" height="60" as="geometry" />
        </mxCell>
        <mxCell id="7RgaMDayecWNL2mOsD79-78" value="VSS采购单&lt;br&gt;一级：待接单&lt;br&gt;二级：" style="rounded=0;whiteSpace=wrap;html=1;fontSize=16;fillColor=#e1d5e7;strokeColor=#9673a6;" vertex="1" parent="1">
          <mxGeometry x="240" y="265" width="120" height="60" as="geometry" />
        </mxCell>
        <mxCell id="7RgaMDayecWNL2mOsD79-79" value="&lt;font style=&quot;font-size: 13px;&quot;&gt;VSS采购单&lt;br&gt;一级：已关闭&lt;br&gt;二级：项目经理取消&lt;/font&gt;" style="rounded=0;whiteSpace=wrap;html=1;fontSize=16;fillColor=#e1d5e7;strokeColor=#9673a6;" vertex="1" parent="1">
          <mxGeometry x="240" y="380" width="120" height="60" as="geometry" />
        </mxCell>
        <mxCell id="7RgaMDayecWNL2mOsD79-80" value="VSS采购单&lt;br&gt;一级：待发货&lt;br&gt;二级：待报价" style="rounded=0;whiteSpace=wrap;html=1;fontSize=16;fillColor=#e1d5e7;strokeColor=#9673a6;" vertex="1" parent="1">
          <mxGeometry x="420" y="160" width="120" height="60" as="geometry" />
        </mxCell>
        <mxCell id="7RgaMDayecWNL2mOsD79-81" value="VSS采购单&lt;br&gt;一级：待发货&lt;br&gt;二级：待确认" style="rounded=0;whiteSpace=wrap;html=1;fontSize=16;fillColor=#e1d5e7;strokeColor=#9673a6;" vertex="1" parent="1">
          <mxGeometry x="590" y="160" width="120" height="60" as="geometry" />
        </mxCell>
        <mxCell id="7RgaMDayecWNL2mOsD79-82" value="VSS采购单&lt;br&gt;一级：待发货&lt;br&gt;二级：已驳回" style="rounded=0;whiteSpace=wrap;html=1;fontSize=16;fillColor=#e1d5e7;strokeColor=#9673a6;" vertex="1" parent="1">
          <mxGeometry x="590" y="60" width="120" height="60" as="geometry" />
        </mxCell>
        <mxCell id="7RgaMDayecWNL2mOsD79-83" value="VSS采购单&lt;br&gt;一级：待发货&lt;br&gt;二级：" style="rounded=0;whiteSpace=wrap;html=1;fontSize=16;fillColor=#e1d5e7;strokeColor=#9673a6;" vertex="1" parent="1">
          <mxGeometry x="780" y="265" width="120" height="60" as="geometry" />
        </mxCell>
        <mxCell id="7RgaMDayecWNL2mOsD79-84" value="VSS采购单&lt;br&gt;一级：拒绝收货&lt;br&gt;二级：" style="rounded=0;whiteSpace=wrap;html=1;fontSize=16;fillColor=#e1d5e7;strokeColor=#9673a6;" vertex="1" parent="1">
          <mxGeometry x="400" y="490" width="120" height="60" as="geometry" />
        </mxCell>
        <mxCell id="7RgaMDayecWNL2mOsD79-85" value="VSS采购单&lt;br&gt;一级：已完成&lt;br&gt;二级：" style="rounded=0;whiteSpace=wrap;html=1;fontSize=16;fillColor=#e1d5e7;strokeColor=#9673a6;" vertex="1" parent="1">
          <mxGeometry x="610" y="490" width="120" height="60" as="geometry" />
        </mxCell>
        <mxCell id="7RgaMDayecWNL2mOsD79-86" value="VSS采购单&lt;br&gt;一级：待签收&lt;br&gt;二级：" style="rounded=0;whiteSpace=wrap;html=1;fontSize=16;fillColor=#e1d5e7;strokeColor=#9673a6;" vertex="1" parent="1">
          <mxGeometry x="780" y="490" width="120" height="60" as="geometry" />
        </mxCell>
      </root>
    </mxGraphModel>
  </diagram>
</mxfile>
